<svg width="43" height="80" viewBox="0 0 43 80" fill="none" xmlns="http://www.w3.org/2000/svg">
<path fill-rule="evenodd" clip-rule="evenodd" d="M23.7391 31.3588C27.3569 28.292 35.217 23.2122 38.0966 29.9063C39.9283 34.1661 38.7997 40.6741 34.8328 43.4317C29.861 46.8875 24.9401 42.1951 22.5297 38.0315C21.8354 36.8331 21.2368 35.5728 20.7076 34.2742C21.662 33.2464 22.6681 32.2668 23.7391 31.3588ZM15.4946 0.333729C13.4559 10.8528 13.7149 22.7019 17.2472 33.0583C15.6641 34.9518 14.3077 36.8653 13.2534 38.5398C7.12986 48.2683 3.53978 61.1794 4.07781 72.6974C4.13703 73.9561 5.60639 74.3655 6.49402 73.832C6.03606 74.1856 5.57359 74.5337 5.10663 74.8762C4.26259 73.6227 3.64211 72.2769 3.22101 70.764C2.964 69.8394 2.9569 68.7848 2.63359 67.8962C2.44115 67.3669 2.03979 67.3803 1.90861 66.775C1.8668 66.5819 1.59126 66.4861 1.49668 66.7031C1.23818 67.2976 0.72542 67.4898 0.491809 68.0952C0.123394 69.0487 0.357545 70.8124 0.514417 71.7729C0.905084 74.1648 1.92959 76.3685 3.32016 78.3359C3.90123 79.1574 4.96231 79.2273 5.77477 78.7413C7.76666 77.5501 9.58969 76.0761 11.2929 74.5051C12.7683 73.1437 14.5324 71.6924 15.3037 69.8074C15.9093 68.3297 14.2958 66.9899 12.953 67.8569C11.3142 68.9145 10.1478 70.6677 8.70796 71.9894C8.09071 72.5561 7.44713 73.0822 6.79371 73.5952C6.9739 73.4001 7.10213 73.1454 7.14342 72.8258C8.4766 62.5016 9.46602 52.6537 14.4105 43.2556C15.624 40.9468 17.0413 38.7325 18.6564 36.6762C18.7517 36.8955 18.8383 37.1209 18.9369 37.3399C22.1945 44.5322 30.9261 52.1983 38.2089 44.7598C43.3789 39.4808 44.4975 25.6619 35.4426 23.5561C29.6573 22.2105 23.9121 25.9942 19.4246 30.6368C18.44 27.4 17.7743 24.0387 17.1746 20.8245C15.9234 14.1243 15.6274 7.2114 15.9216 0.410136C15.933 0.140451 15.5492 0.0507445 15.4946 0.333729Z" fill="black"/>
</svg>
