<svg width="64" height="59" viewBox="0 0 64 59" fill="none" xmlns="http://www.w3.org/2000/svg">
<path fill-rule="evenodd" clip-rule="evenodd" d="M32.1319 41.8102C32.9393 46.4836 33.3295 55.8342 26.0999 54.9197C21.4997 54.3372 16.4639 50.0631 16.0999 45.2456C15.644 39.2079 22.1842 37.3478 26.9951 37.3828C28.38 37.3924 29.7698 37.5159 31.1574 37.7186C31.5589 39.0626 31.8927 40.4265 32.1319 41.8102ZM63.0506 50.4446C55.0199 43.3513 44.6774 37.5634 33.9607 35.3534C33.1321 33.0286 32.1712 30.889 31.263 29.131C25.9858 18.9185 16.6808 9.27484 6.482 3.89529C5.36727 3.30779 4.26907 4.36635 4.27849 5.40192C4.20609 4.82787 4.14075 4.25276 4.08248 3.67659C5.59083 3.5851 7.0654 3.73315 8.58282 4.13777C9.50998 4.38534 10.4224 4.91423 11.3522 5.0864C11.9059 5.1891 12.098 4.83642 12.6862 5.03045C12.8738 5.09238 13.0961 4.90353 12.9571 4.71191C12.576 4.18758 12.6704 3.64819 12.2673 3.13976C11.6325 2.33855 9.99372 1.64556 9.08648 1.29352C6.82701 0.416735 4.40819 0.181663 2.0073 0.381925C1.00455 0.465893 0.406014 1.34484 0.412697 2.29155C0.428736 4.61241 0.774137 6.9312 1.26388 9.19597C1.68868 11.158 2.04439 13.4145 3.27751 15.0355C4.24367 16.307 6.21681 15.5963 6.15094 13.9993C6.07094 12.0504 5.15174 10.1559 4.74324 8.24458C4.56799 7.42515 4.44114 6.60366 4.3305 5.7803C4.40727 6.03458 4.56168 6.27428 4.81611 6.47197C13.0368 12.8584 21.0215 18.707 26.6121 27.7357C27.9861 29.9528 29.1753 32.2975 30.128 34.7325C29.8906 34.7034 29.6524 34.6636 29.4137 34.6375C21.563 33.796 10.527 37.4316 13.2427 47.4813C15.1692 54.6146 26.5104 62.5891 32.9186 55.8542C37.0131 51.5512 36.6671 44.6807 34.9429 38.4583C38.2317 39.2519 41.4661 40.3834 44.5402 41.4972C50.9489 43.818 57.0563 47.0699 62.7682 50.7737C62.9948 50.9204 63.2668 50.6352 63.0506 50.4446Z" fill="black" fill-opacity="0.8"/>
</svg>
