<svg width="71" height="61" viewBox="0 0 71 61" fill="none" xmlns="http://www.w3.org/2000/svg">
<path d="M64.5033 39.6842C65.2716 39.563 65.272 39.563 65.2719 39.5626L65.2712 39.5614C65.271 39.5603 65.2706 39.5589 65.2703 39.5571C65.2698 39.5536 65.2692 39.5486 65.2682 39.5424C65.2661 39.5298 65.2633 39.5117 65.2594 39.4884C65.2514 39.4417 65.2389 39.3735 65.2228 39.2855C65.1905 39.1094 65.1416 38.8527 65.0723 38.5264C64.9339 37.874 64.7156 36.9409 64.3956 35.8074C63.7558 33.5415 62.706 30.4648 61.0634 27.2268C57.7837 20.762 52.0898 13.5567 42.4983 10.9866C32.9068 8.41665 24.3731 11.8096 18.3004 15.7685C15.2589 17.7514 12.8114 19.891 11.1244 21.5334C10.2804 22.3551 9.62487 23.054 9.17881 23.5498C8.9557 23.7977 8.78497 23.9956 8.66895 24.132C8.61103 24.2001 8.56603 24.2529 8.53578 24.2894C8.52077 24.3075 8.50924 24.3219 8.50119 24.3317C8.49721 24.3366 8.49423 24.3406 8.49199 24.3434C8.49089 24.3447 8.48977 24.3458 8.4891 24.3467L8.4879 24.3473L9.09272 24.837M64.5033 39.6842C65.1081 40.1733 65.1081 40.1744 65.1078 40.1748L65.1067 40.1754C65.106 40.1763 65.1048 40.1774 65.1038 40.1787C65.1015 40.1815 65.0985 40.1855 65.0946 40.1904C65.0865 40.2003 65.075 40.2145 65.06 40.2327C65.0297 40.2692 64.9848 40.3219 64.9268 40.3901C64.8108 40.5265 64.64 40.7244 64.4169 40.9723C63.9708 41.4681 63.3153 42.167 62.4714 42.9887C60.7844 44.6311 58.3369 46.7707 55.2953 48.7536C49.2226 52.7124 40.6891 56.1045 31.0977 53.5345C21.5062 50.9644 15.812 43.7601 12.5324 37.2953C10.8897 34.0573 9.83996 30.9806 9.20018 28.7147C8.88013 27.5812 8.66186 26.6481 8.52342 25.9957C8.45418 25.6694 8.40526 25.4127 8.37297 25.2366C8.35684 25.1486 8.34431 25.0804 8.33635 25.0337C8.3324 25.0104 8.32961 24.9923 8.32755 24.9797C8.32653 24.9735 8.326 24.9685 8.32543 24.965C8.32514 24.9632 8.32472 24.9618 8.32455 24.9607L8.32386 24.9595C8.32379 24.9591 8.32438 24.9581 9.09272 24.837M64.5033 39.6842L65.1081 40.1738C65.2465 40.0027 65.3059 39.7809 65.2716 39.5635L64.5033 39.6842ZM9.09272 24.837L8.32412 24.9586C8.28984 24.7412 8.34931 24.5194 8.48765 24.3483L9.09272 24.837Z" fill="#B3B3B3" stroke="#B3B3B3" stroke-width="1.55568" stroke-linejoin="round"/>
<path d="M62.0984 35.5202C62.8668 35.3991 62.8671 35.3991 62.867 35.3986L62.8663 35.3974C62.8662 35.3963 62.8658 35.3949 62.8655 35.3931C62.8649 35.3896 62.8644 35.3847 62.8634 35.3784C62.8613 35.3659 62.8585 35.3478 62.8545 35.3245C62.8466 35.2777 62.8341 35.2096 62.8179 35.1216C62.7856 34.9455 62.7367 34.6887 62.6675 34.3624C62.529 33.7101 62.3108 32.777 61.9907 31.6435C61.3509 29.3776 60.3012 26.3009 58.6586 23.0629C55.3789 16.598 49.685 9.39272 40.0935 6.82269C30.502 4.2527 21.9683 7.64566 15.8956 11.6046C12.854 13.5875 10.4065 15.7271 8.71954 17.3695C7.8756 18.1912 7.22002 18.8901 6.77396 19.3858C6.55085 19.6338 6.38012 19.8317 6.2641 19.968C6.20619 20.0361 6.16118 20.089 6.13093 20.1255C6.11592 20.1436 6.10439 20.1579 6.09634 20.1678C6.09237 20.1726 6.08939 20.1767 6.08715 20.1794C6.08605 20.1808 6.08492 20.1819 6.08425 20.1827L6.08305 20.1834L6.68787 20.673M62.0984 35.5202C62.7033 36.0093 62.7033 36.0105 62.703 36.0108L62.7018 36.0115C62.7011 36.0123 62.7 36.0134 62.6989 36.0148C62.6966 36.0176 62.6937 36.0216 62.6897 36.0265C62.6816 36.0363 62.6702 36.0506 62.6551 36.0688C62.6248 36.1053 62.58 36.158 62.522 36.2262C62.4059 36.3626 62.2352 36.5604 62.0121 36.8084C61.566 37.3042 60.9104 38.0031 60.0665 38.8247C58.3795 40.4671 55.9321 42.6068 52.8905 44.5896C46.8178 48.5485 38.2843 51.9406 28.6928 49.3706C19.1014 46.8005 13.4071 39.5962 10.1275 33.1313C8.48486 29.8933 7.43511 26.8166 6.79533 24.5507C6.47529 23.4172 6.25701 22.4841 6.11857 21.8318C6.04933 21.5055 6.00042 21.2487 5.96813 21.0726C5.952 20.9846 5.93946 20.9165 5.93151 20.8697C5.92755 20.8464 5.92476 20.8284 5.9227 20.8158C5.92168 20.8095 5.92115 20.8046 5.92058 20.8011C5.9203 20.7993 5.91988 20.7979 5.91971 20.7968L5.91902 20.7956C5.91894 20.7951 5.91953 20.7942 6.68787 20.673M62.0984 35.5202L62.7033 36.0099C62.8416 35.8387 62.9011 35.617 62.8668 35.3996L62.0984 35.5202ZM6.68787 20.673L5.91927 20.7947C5.88499 20.5773 5.94446 20.3555 6.0828 20.1843L6.68787 20.673Z" fill="#44E2F8" stroke="black" stroke-width="1.55568" stroke-linejoin="round"/>
<path d="M37.3457 13.6653C44.5143 15.2668 48.7923 22.8858 47.0769 30.5646C45.3615 38.2436 38.2478 43.3176 31.0792 41.7161C23.9106 40.1145 19.6324 32.4956 21.3479 24.8168C23.0634 17.1381 30.1771 12.064 37.3457 13.6653Z" fill="white" stroke="black" stroke-width="1.55568" stroke-linecap="round" stroke-linejoin="round"/>
<path d="M36.1556 18.5899C40.7297 19.6118 43.5491 24.2431 42.5095 28.8969C41.4696 33.5506 36.9476 36.5409 32.3736 35.5192C27.7994 34.4974 24.979 29.8667 26.0185 25.2129C27.0582 20.5589 31.5813 17.568 36.1556 18.5899Z" fill="#FC75FF" stroke="black" stroke-width="1.55568" stroke-linecap="round" stroke-linejoin="round"/>
<ellipse cx="33.9487" cy="26.3133" rx="3.81325" ry="3.92484" transform="rotate(12.5931 33.9487 26.3133)" fill="black"/>
</svg>
