<svg width="53" height="58" viewBox="0 0 53 58" fill="none" xmlns="http://www.w3.org/2000/svg">
<path d="M4.31093 56.356C4.28475 56.8133 4.48514 57.2542 4.84687 57.5352C5.2086 57.8162 5.68539 57.9013 6.122 57.7629L22.5802 52.5431C22.8553 52.4559 23.0965 52.2853 23.2704 52.0551L49.9993 16.6678C50.2937 16.2781 50.3623 15.7626 50.1802 15.3094C48.4334 10.9626 45.083 7.77301 41.526 5.71571C37.9885 3.66971 34.1025 2.66032 31.1259 2.81632C30.6994 2.83867 30.3068 3.05548 30.0607 3.40452L5.56406 38.1519C5.41416 38.3645 5.32683 38.6149 5.31196 38.8746L4.31093 56.356Z" fill="#B3B3B3"/>
<path d="M28.2367 0.876227C31.0504 0.728795 34.8037 1.68875 38.2519 3.68307C41.7098 5.68306 44.9337 8.76579 46.6088 12.9342C46.6996 13.1606 46.6652 13.418 46.5182 13.6127L19.7887 49.0005C19.7019 49.1153 19.5818 49.2009 19.4446 49.2445L2.98618 54.4636C2.76795 54.5328 2.52936 54.4907 2.34852 54.3503C2.16777 54.2099 2.06707 53.9895 2.08 53.761L3.0815 36.2794L3.09404 36.1829C3.11297 36.0879 3.1511 35.9975 3.20728 35.9178L27.7045 1.17011L27.7531 1.10791C27.876 0.970035 28.0501 0.886007 28.2367 0.876227Z" fill="white" stroke="black" stroke-width="1.39241" stroke-linejoin="round"/>
<path d="M28.2733 1.57155L3.77666 36.3189C6.87694 36.7229 14.3088 39.7408 19.2339 48.5806L45.9628 13.1933C42.7559 5.21335 33.5746 1.29372 28.2733 1.57155Z" fill="#FF5757"/>
<path d="M24.1244 6.73574C29.1703 6.60816 33.2482 8.58777 36.2781 11.0881C39.2988 13.5808 41.3062 16.6129 42.2399 18.6741C42.3451 18.9064 42.3152 19.1779 42.1616 19.3813L19.7894 49C19.647 49.1886 19.4186 49.2926 19.1829 49.2753C18.9472 49.258 18.7366 49.1218 18.6232 48.9145C13.9562 40.3795 6.63966 37.4245 3.6798 37.0083C3.4396 36.9746 3.23434 36.8183 3.13793 36.5957C3.04156 36.3731 3.06829 36.1165 3.20804 35.9183L23.5727 7.03064L23.6241 6.96634C23.7512 6.82504 23.9321 6.7406 24.1244 6.73574Z" fill="#F8D044" stroke="black" stroke-width="1.39241" stroke-linejoin="round"/>
<path d="M3.27591 45.0598L2.7754 53.8005L11.0045 51.1906C8.30122 47.4979 4.72574 45.5647 3.27591 45.0598Z" fill="black"/>
<path d="M17.4121 46.2362L40.3464 15.7644" stroke="black" stroke-width="1.39241" stroke-linecap="round" stroke-linejoin="round"/>
<path d="M9.87797 39.6591L31.3701 8.38066" stroke="black" stroke-width="1.39241" stroke-linecap="round" stroke-linejoin="round"/>
</svg>
