<svg width="68" height="67" viewBox="0 0 68 67" fill="none" xmlns="http://www.w3.org/2000/svg">
<path d="M36.8397 59.4968C37.0516 60.0594 37.6198 60.405 38.2168 60.3342C38.8138 60.2635 39.2856 59.7946 39.36 59.1981C40.1559 52.8201 45.4932 38.3217 60.3415 31.8584C60.9091 31.6113 61.2255 31 61.0995 30.3939C60.9735 29.7878 60.4396 29.3532 59.8206 29.3529C52.4302 29.3486 46.3769 25.9272 41.7676 21.5487C37.148 17.1605 34.0638 11.8859 32.6547 8.41186C32.4314 7.86112 31.8645 7.53041 31.2752 7.60696C30.6858 7.68351 30.2223 8.14803 30.147 8.73756C27.8699 26.5672 15.2042 34.3632 9.33149 36.0216C8.71666 36.1952 8.31743 36.7878 8.38753 37.4229C8.45763 38.0579 8.9765 38.5492 9.61441 38.5845C16.1576 38.947 30.8717 43.6447 36.8397 59.4968Z" fill="#B3B3B3"/>
<path d="M27.5779 6.99974C27.6156 6.70502 27.8473 6.47249 28.1419 6.43422C28.4365 6.39618 28.7194 6.56184 28.8311 6.83706C30.2706 10.3862 33.4042 15.742 38.0994 20.202C42.7896 24.6573 48.9959 28.1809 56.6023 28.1853C56.9117 28.1855 57.1784 28.4032 57.2415 28.7062C57.3045 29.0091 57.1468 29.3151 56.8632 29.4387C41.7342 36.0243 36.3074 50.7761 35.4937 57.297C35.4563 57.595 35.2205 57.8287 34.9222 57.8642C34.6238 57.8996 34.3398 57.7272 34.2339 57.4459C28.1455 41.274 13.1399 36.483 6.43245 36.1114C6.11366 36.0937 5.85454 35.848 5.81944 35.5307C5.7844 35.2132 5.98386 34.9173 6.29116 34.8304C12.3627 33.1158 25.2612 25.1402 27.5779 6.99974Z" fill="#FC75FF" stroke="black" stroke-width="1.30707" stroke-linejoin="round"/>
<path d="M42.5204 31.058C36.0259 35.0294 33.5776 42.0156 32.8941 45.2571C30.7269 41.1107 25.1674 34.5141 20.235 33.8473C22.2002 33.1893 27.1995 27.1685 29.5465 19.7356C33.7973 27.2377 39.8329 30.3339 42.5204 31.058Z" fill="white" stroke="black" stroke-width="1.30707" stroke-linecap="round" stroke-linejoin="round"/>
</svg>
